<?xml version="1.0" encoding="UTF-8"?><svg id="Layer_1" xmlns="http://www.w3.org/2000/svg" xmlns:xlink="http://www.w3.org/1999/xlink" viewBox="0 0 78.56 79.58"><defs><style>.cls-1{fill:url(#linear-gradient);}.cls-1,.cls-2,.cls-3,.cls-4,.cls-5,.cls-6,.cls-7,.cls-8{stroke-width:0px;}.cls-2{fill:url(#linear-gradient-4);}.cls-3{fill:url(#linear-gradient-2);}.cls-4{fill:url(#linear-gradient-3);}.cls-5{fill:url(#linear-gradient-8);}.cls-6{fill:url(#linear-gradient-7);}.cls-7{fill:url(#linear-gradient-5);}.cls-8{fill:url(#linear-gradient-6);}</style><linearGradient id="linear-gradient" x1="35.88" y1="45.11" x2="77.34" y2="45.11" gradientUnits="userSpaceOnUse"><stop offset="0" stop-color="#e5e2df"/><stop offset="0" stop-color="#d6d3d0"/><stop offset="0" stop-color="#afacaa"/><stop offset="0" stop-color="#706f6e"/><stop offset="0" stop-color="#595857"/><stop offset=".1" stop-color="#4a4948"/><stop offset=".15" stop-color="#414140"/><stop offset=".45" stop-color="#919396"/><stop offset=".49" stop-color="#828487"/><stop offset=".58" stop-color="#5d5e60"/><stop offset=".7" stop-color="#222121"/><stop offset=".72" stop-color="#131212"/><stop offset=".88" stop-color="#a8aaad"/><stop offset="1" stop-color="#434345"/></linearGradient><linearGradient id="linear-gradient-2" x1="18.47" y1="57.58" x2="69.83" y2="57.58" xlink:href="#linear-gradient"/><linearGradient id="linear-gradient-3" x1="16.77" y1="23.13" x2="38.1" y2="23.13" xlink:href="#linear-gradient"/><linearGradient id="linear-gradient-4" x1="12.82" y1="28.01" x2="32.28" y2="28.01" xlink:href="#linear-gradient"/><linearGradient id="linear-gradient-5" x1="17.2" y1="14.66" x2="32.86" y2="14.66" xlink:href="#linear-gradient"/><linearGradient id="linear-gradient-6" x1="1.45" y1="8.29" x2="33.52" y2="8.29" xlink:href="#linear-gradient"/><linearGradient id="linear-gradient-7" x1="12.89" y1="25.02" x2="16.55" y2="25.02" xlink:href="#linear-gradient"/><linearGradient id="linear-gradient-8" x1="1.29" y1="17.43" x2="15.27" y2="17.43" xlink:href="#linear-gradient"/></defs><path class="cls-1" d="M67.12,69.84c1.66,2.31,4.72,2.51,6.94.86s3.43-4.25,4.05-6.77c.67-2.7.6-5.63-.26-8.28-.78-2.41-2.31-5.41-5.22-5.48-2.45-.06-5.48,2.26-6.42,4.48-.49,1.16-.28,2.42.59,3.34.77.81,1.85,1.11,2.68,1.81.49.41.86,1.44-.1,1.39-1.27-.07-2.59-1.9-3.36-2.75-1.97-2.16-3.73-4.61-4.64-7.41s-1.31-6.35-3.86-8.39c-2.14-1.71-5.31-2.2-7.38-.12h2.16c-1.47-1.54-2.57-3.38-3.16-5.43-.65-2.25-.53-4.46-.28-6.76.43-3.88.52-8.59-3.2-10.98-3.11-2-7.23-.47-9.32,2.27-2.73,3.59-1.75,8.49.16,12.21.9,1.75,3.53.21,2.64-1.54-1.46-2.85-2.44-7.08.27-9.53,2.32-2.09,5.41-1.4,6.33,1.64,1.07,3.54-.49,7.34-.04,10.96s2,6.75,4.45,9.32c.57.59,1.59.58,2.16,0,1.39-1.4,3.55.24,4.3,1.55,1.18,2.06,1.37,4.57,2.26,6.76s2.17,4.2,3.66,6.05,3.15,3.91,5.33,4.83c2.05.86,4.48.09,5.07-2.21.51-2-.63-3.72-2.27-4.73-.36-.22-1.63-.79-1.67-1.04-.09-.55,1.91-2,2.29-2.23,2.38-1.44,3.45,1.94,3.89,3.74.61,2.48.4,5.21-.6,7.57-.46,1.08-1.09,2.18-1.95,2.98-.67.62-2.15,1.36-2.87.36-1.14-1.58-3.79-.06-2.64,1.54h0Z"/><path class="cls-3" d="M67.56,70.49c.71.5.45,1.61.1,2.23-.56.99-1.59,1.69-2.56,2.24-2.03,1.15-4.35,1.69-6.67,1.61-1.08-.04-2.13-.22-3.17-.54-.94-.29-2.39-.77-2.96-1.64-.64-.98.27-2.13.91-2.86.41-.46.86-.9,1.32-1.31.38-.34.34-.32.61,0,.53.65.81,1.5,1.33,2.16.64.82,1.5,1.36,2.54,1.53,2.08.35,4.14-.97,4.33-3.15.22-2.46-1.81-4.38-3.46-5.91-1.79-1.65-3.76-3.18-5.95-4.28-2.49-1.26-5.21-1.56-7.78-2.56-1.66-.64-4.21-3-2.38-4.82.57-.57.6-1.59,0-2.16-2.63-2.51-5.98-4.04-9.6-4.39s-7.7,1.43-11.32.17c-3.05-1.06-3.15-4.25-1.12-6.41,2.54-2.7,6.73-1.92,9.7-.44,1.75.88,3.3-1.76,1.54-2.64-3-1.5-6.56-2.37-9.85-1.29-2.71.89-4.95,3.14-5.65,5.94s.54,5.84,3.24,7.22c3.26,1.66,6.74.87,10.2.53,3.97-.39,7.79.68,10.71,3.46v-2.16c-1.84,1.83-1.81,4.65-.48,6.79,1.53,2.45,4.33,3.27,6.97,3.93,2.94.73,5.52,1.89,7.91,3.78,1.12.88,2.2,1.86,3.17,2.9.4.43,2.06,2.75.34,2.49-.86-.13-1.2-1.36-1.6-2-.58-.93-1.32-1.75-2.44-1.96-1.51-.29-2.7.66-3.71,1.65s-2.09,2.23-2.53,3.66c-1.94,6.27,7.77,7.77,11.9,7.19,2.97-.42,6.2-1.71,8.24-3.97s2.4-5.75-.29-7.63c-1.61-1.13-3.14,1.51-1.54,2.64h0Z"/><path class="cls-4" d="M38.97,32.33l-11.38-10.36c-1.77-1.61-3.56-3.21-5.31-4.85-1.58-1.48-3.02-3.02-3.92-5.01-.34-.76-1.43-.92-2.09-.55-.78.44-.88,1.34-.55,2.09.9,1.99,2.34,3.65,3.9,5.16,1.79,1.73,3.66,3.37,5.5,5.04l11.69,10.64c1.45,1.32,3.61-.83,2.16-2.16h0Z"/><path class="cls-2" d="M33.13,37.85c-6.55-7.07-12.89-14.34-19-21.8-1.25-1.52-3.39.65-2.16,2.16,6.11,7.45,12.45,14.72,19,21.8,1.34,1.44,3.49-.72,2.16-2.16h0Z"/><path class="cls-7" d="M16.61,14.44c4.76,3.31,11.07,4.19,16.56,2.34,1.85-.62,1.06-3.57-.81-2.94-4.79,1.61-10.05.85-14.2-2.04-.68-.47-1.7-.12-2.09.55-.44.76-.13,1.62.55,2.09h0Z"/><path class="cls-8" d="M34.59,14.29c-3.32-4.37-8.6-5.7-13.61-7.21C14.64,5.16,8.41,2.88,2.34.25.56-.52-1,2.11.8,2.89c5.73,2.49,11.58,4.7,17.54,6.57,4.55,1.43,10.53,2.32,13.61,6.37,1.17,1.54,3.83.02,2.64-1.54h0Z"/><path class="cls-6" d="M11.82,18.14c2.88,4.14,3.67,9.39,2.06,14.18-.62,1.87,2.32,2.67,2.94.81,1.84-5.48.93-11.78-2.37-16.53-.47-.68-1.34-.99-2.09-.55-.67.39-1.02,1.41-.55,2.09h0Z"/><path class="cls-5" d="M15.86,31.92c-4.05-3.08-4.95-9.05-6.39-13.6C7.6,12.36,5.38,6.52,2.89.8,2.11-1-.53.55.25,2.34c2.64,6.06,4.93,12.28,6.85,18.61,1.52,5.01,2.86,10.28,7.22,13.6,1.56,1.19,3.09-1.46,1.54-2.64h0Z"/></svg>