<?xml version="1.0" encoding="utf-8"?>
<!-- Generator: Adobe Illustrator 27.9.0, SVG Export Plug-In . SVG Version: 6.00 Build 0)  -->
<svg version="1.1" id="Layer_1" xmlns="http://www.w3.org/2000/svg" xmlns:xlink="http://www.w3.org/1999/xlink" x="0px" y="0px"
	 viewBox="0 0 97.8 96.4" style="enable-background:new 0 0 97.8 96.4;" xml:space="preserve">
<style type="text/css">
	.st0{fill:url(#SVGID_1_);}
	.st1{fill:url(#SVGID_00000148638942819421525120000000973388112493024150_);}
	.st2{fill:url(#SVGID_00000058556511912422561200000014697702880368005545_);}
	.st3{fill:url(#SVGID_00000006673622247713042150000012824803232309763740_);}
	.st4{fill:url(#SVGID_00000072974348450247040220000003695927463558987403_);}
	.st5{fill:url(#SVGID_00000112605486680414677880000012636384003570669460_);}
	.st6{fill:url(#SVGID_00000168827880981540095760000004038454854584329601_);}
	.st7{fill:url(#SVGID_00000065058952546964874300000007121215184339687299_);}
</style>
<linearGradient id="SVGID_1_" gradientUnits="userSpaceOnUse" x1="12.8242" y1="29.4917" x2="72.5416" y2="29.4917" gradientTransform="matrix(6.123234e-17 -1 -1 -6.123234e-17 98.6531 97.0987)">
	<stop  offset="0" style="stop-color:#E5E2DF"/>
	<stop  offset="0" style="stop-color:#D8D4D0"/>
	<stop  offset="0" style="stop-color:#CCC7C2"/>
	<stop  offset="7.000000e-02" style="stop-color:#BDB8B4"/>
	<stop  offset="0.15" style="stop-color:#A6A3A0"/>
	<stop  offset="0.52" style="stop-color:#E0E1E2"/>
	<stop  offset="0.62" style="stop-color:#D2D3D3"/>
	<stop  offset="0.82" style="stop-color:#B0AEAC"/>
	<stop  offset="0.88" style="stop-color:#A6A3A0"/>
	<stop  offset="1" style="stop-color:#D2D3D4"/>
	<stop  offset="1" style="stop-color:#A8AAAD"/>
</linearGradient>
<path class="st0" d="M81.5,83.4c1.9,2.7,5.5,2.9,8.1,1c2.6-1.9,4.2-5.3,4.9-8.4s0.6-6.5-0.5-9.6c-1-2.9-2.9-6.3-6.4-6.2
	c-1.8,0.1-3.3,1.1-4.6,2.2c-1.2,1-2.5,2.3-2.8,3.9c-0.3,1.6,0.5,2.8,1.7,3.7c0.8,0.6,2.3,1,2.8,1.9c0.6,0.9,0,1.4-0.9,1.1
	c-1.5-0.6-2.6-2.1-3.6-3.2c-2.2-2.4-4.2-5.2-5.2-8.3c-1.1-3.4-1.5-7.5-4.4-9.9c-2.5-2.1-6.4-2.8-8.8-0.2h2.5
	c-2.6-2.7-4.2-6.2-4.3-9.9c-0.2-4.1,1.3-8.2,0-12.3c-1-3.3-3.6-6-7.2-6c-3.3,0-6.5,2.1-8,4.9c-2.2,4.2-1.1,9.1,1,13.1
	c1.1,2.1,4.1,0.2,3.1-1.8c-1.4-2.8-2.4-6.4-1-9.4c1-2,3.4-3.7,5.7-3.2c2.8,0.6,3.5,4.2,3.5,6.6c-0.1,3.7-0.9,7.1-0.3,10.8
	c0.7,3.7,2.5,7,5,9.7c0.7,0.7,1.9,0.7,2.5,0c1.4-1.5,3.8,0,4.8,1.3c1.6,2.3,1.8,5.4,2.8,8c1.1,2.8,2.6,5.2,4.5,7.5
	c1.7,2.1,3.8,4.7,6.4,5.7c2.6,1,5.6-0.5,5.8-3.4c0.2-2.7-1.7-4.2-3.8-5.4c-0.2-0.1-0.9-0.4-1-0.7c0,0,0.2-0.2,0.3-0.4
	c0.8-1,2.2-2.5,3.5-2.6c2.3-0.3,3.2,3.9,3.6,5.5c0.6,2.9,0.2,6-1,8.6c-0.6,1.2-1.3,2.6-2.4,3.4c-0.8,0.6-2.3,1.1-3,0.1
	C83.3,79.8,80.2,81.5,81.5,83.4L81.5,83.4L81.5,83.4z"/>
<linearGradient id="SVGID_00000130645532875789151550000012562998930035756728_" gradientUnits="userSpaceOnUse" x1="3.6553" y1="44.1007" x2="52.4291" y2="44.1007" gradientTransform="matrix(6.123234e-17 -1 -1 -6.123234e-17 98.6531 97.0987)">
	<stop  offset="0" style="stop-color:#E5E2DF"/>
	<stop  offset="0" style="stop-color:#D8D4D0"/>
	<stop  offset="0" style="stop-color:#CCC7C2"/>
	<stop  offset="7.000000e-02" style="stop-color:#BDB8B4"/>
	<stop  offset="0.15" style="stop-color:#A6A3A0"/>
	<stop  offset="0.52" style="stop-color:#E0E1E2"/>
	<stop  offset="0.62" style="stop-color:#D2D3D3"/>
	<stop  offset="0.82" style="stop-color:#B0AEAC"/>
	<stop  offset="0.88" style="stop-color:#A6A3A0"/>
	<stop  offset="1" style="stop-color:#D2D3D4"/>
	<stop  offset="1" style="stop-color:#A8AAAD"/>
</linearGradient>
<path style="fill:url(#SVGID_00000130645532875789151550000012562998930035756728_);" d="M82,84.2c0.8,0.5,0.5,1.8,0.2,2.5
	c-0.7,1.3-2,2.2-3.3,2.8c-2.4,1.3-5,1.9-7.7,1.8c-1.3,0-2.6-0.3-3.9-0.7c-1-0.3-2.5-0.8-3.2-1.8c-0.7-0.9,0-2.1,0.6-2.9
	c0.4-0.5,0.9-1,1.3-1.4c0.3-0.2,0.6-0.5,0.8-0.7c0.3-0.3,0.5,0,0.2-0.2c0.6,0.3,1,1.5,1.4,2.1c0.7,1.1,1.6,2.1,2.9,2.5
	c2.6,0.8,5.5-0.7,5.7-3.6s-2.2-5.3-4.2-7.1c-2.2-2.1-4.7-3.9-7.5-5.2c-1.5-0.7-3-1.2-4.5-1.6c-1.6-0.4-3.2-0.7-4.6-1.4
	c-1.7-0.9-3.9-3.5-2.1-5.3c0.7-0.7,0.7-1.9,0-2.5c-2.4-2.3-5.5-4-8.8-4.8c-3.7-0.8-7.2-0.1-10.9,0.2C31.9,57,28.3,57,27,54.4
	c-1.1-2.2,0.4-4.9,2.2-6.2c3.1-2.3,7.4-1.3,10.5,0.3c2.1,1,3.9-2.1,1.8-3.1c-3.6-1.8-7.8-2.8-11.7-1.5c-3.3,1.1-6,4-6.6,7.5
	c-0.6,3.5,1.2,6.8,4.5,8.2c3.9,1.7,7.9,0.6,12,0.3c4.4-0.3,8.7,1,11.9,4.1v-2.5c-2.2,2.1-2.1,5.4-0.6,7.8c1.7,2.9,5,3.9,8.1,4.7
	c3.4,0.8,6.3,2.1,9.1,4.2c0.7,0.5,6.9,5.6,4.9,6.5c-1,0.4-1.5-0.7-1.9-1.4c-0.6-1.1-1.2-2.3-2.4-2.9c-3.1-1.7-6.5,2.1-7.8,4.5
	c-4.1,7.4,7,10.4,12.3,9.8c3.7-0.4,7.6-1.7,10.3-4.4c2.7-2.6,3.5-7,0.1-9.4C81.9,79.8,80.1,82.9,82,84.2L82,84.2L82,84.2z"/>
<linearGradient id="SVGID_00000039134715125707944950000012925066898177208755_" gradientUnits="userSpaceOnUse" x1="56.1501" y1="63.6206" x2="80.6229" y2="63.6206" gradientTransform="matrix(6.123234e-17 -1 -1 -6.123234e-17 98.6531 97.0987)">
	<stop  offset="0" style="stop-color:#E5E2DF"/>
	<stop  offset="0" style="stop-color:#D8D4D0"/>
	<stop  offset="0" style="stop-color:#CCC7C2"/>
	<stop  offset="7.000000e-02" style="stop-color:#BDB8B4"/>
	<stop  offset="0.15" style="stop-color:#A6A3A0"/>
	<stop  offset="0.52" style="stop-color:#E0E1E2"/>
	<stop  offset="0.62" style="stop-color:#D2D3D3"/>
	<stop  offset="0.82" style="stop-color:#B0AEAC"/>
	<stop  offset="0.88" style="stop-color:#A6A3A0"/>
	<stop  offset="1" style="stop-color:#D2D3D4"/>
	<stop  offset="1" style="stop-color:#A8AAAD"/>
</linearGradient>
<path style="fill:url(#SVGID_00000039134715125707944950000012925066898177208755_);" d="M48.5,39.4c-4.4-4-8.8-8-13.2-12
	c-2.1-1.9-4.2-3.8-6.2-5.7c-1.9-1.8-3.7-3.6-4.7-6c-0.4-0.9-1.7-1.1-2.5-0.6c-0.9,0.5-1,1.6-0.6,2.5c1.1,2.4,2.8,4.4,4.7,6.2
	c2.1,2,4.3,3.9,6.5,5.9c4.5,4.1,9,8.2,13.5,12.3C47.7,43.5,50.2,41,48.5,39.4L48.5,39.4L48.5,39.4z"/>
<linearGradient id="SVGID_00000170280718643842250170000012443795646996268728_" gradientUnits="userSpaceOnUse" x1="49.7003" y1="69.4191" x2="75.7188" y2="69.4191" gradientTransform="matrix(6.123234e-17 -1 -1 -6.123234e-17 98.6531 97.0987)">
	<stop  offset="0" style="stop-color:#E5E2DF"/>
	<stop  offset="0" style="stop-color:#D8D4D0"/>
	<stop  offset="0" style="stop-color:#CCC7C2"/>
	<stop  offset="7.000000e-02" style="stop-color:#BDB8B4"/>
	<stop  offset="0.15" style="stop-color:#A6A3A0"/>
	<stop  offset="0.52" style="stop-color:#E0E1E2"/>
	<stop  offset="0.62" style="stop-color:#D2D3D3"/>
	<stop  offset="0.82" style="stop-color:#B0AEAC"/>
	<stop  offset="0.88" style="stop-color:#A6A3A0"/>
	<stop  offset="1" style="stop-color:#D2D3D4"/>
	<stop  offset="1" style="stop-color:#A8AAAD"/>
</linearGradient>
<path style="fill:url(#SVGID_00000170280718643842250170000012443795646996268728_);" d="M41.6,45.9C34,37.6,26.5,29.1,19.4,20.3
	c-0.6-0.8-1.9-0.6-2.5,0c-0.7,0.7-0.6,1.8,0,2.5c7.2,8.7,14.6,17.3,22.3,25.6C40.7,50.1,43.2,47.6,41.6,45.9L41.6,45.9z"/>
<linearGradient id="SVGID_00000171680037156725404450000009497265000100241570_" gradientUnits="userSpaceOnUse" x1="76.2054" y1="66.5054" x2="80.4798" y2="66.5054" gradientTransform="matrix(6.123234e-17 -1 -1 -6.123234e-17 98.6531 97.0987)">
	<stop  offset="0" style="stop-color:#E5E2DF"/>
	<stop  offset="0" style="stop-color:#D8D4D0"/>
	<stop  offset="0" style="stop-color:#CCC7C2"/>
	<stop  offset="7.000000e-02" style="stop-color:#BDB8B4"/>
	<stop  offset="0.15" style="stop-color:#A6A3A0"/>
	<stop  offset="0.52" style="stop-color:#E0E1E2"/>
	<stop  offset="0.62" style="stop-color:#D2D3D3"/>
	<stop  offset="0.82" style="stop-color:#B0AEAC"/>
	<stop  offset="0.88" style="stop-color:#A6A3A0"/>
	<stop  offset="1" style="stop-color:#D2D3D4"/>
	<stop  offset="1" style="stop-color:#A8AAAD"/>
</linearGradient>
<path style="fill:url(#SVGID_00000171680037156725404450000009497265000100241570_);" d="M22.3,18.5c5.6,3.9,13,4.9,19.4,2.7
	c2.2-0.7,1.2-4.2-1-3.5c-5.6,1.9-11.8,1-16.6-2.4c-0.8-0.6-2-0.1-2.5,0.6C21.1,16.9,21.5,17.9,22.3,18.5L22.3,18.5L22.3,18.5z"/>
<linearGradient id="SVGID_00000064338846875904726530000003367426161147873175_" gradientUnits="userSpaceOnUse" x1="77.7128" y1="75.4136" x2="94.0662" y2="75.4136" gradientTransform="matrix(6.123234e-17 -1 -1 -6.123234e-17 98.6531 97.0987)">
	<stop  offset="0" style="stop-color:#E5E2DF"/>
	<stop  offset="0" style="stop-color:#D8D4D0"/>
	<stop  offset="0" style="stop-color:#CCC7C2"/>
	<stop  offset="7.000000e-02" style="stop-color:#BDB8B4"/>
	<stop  offset="0.15" style="stop-color:#A6A3A0"/>
	<stop  offset="0.52" style="stop-color:#E0E1E2"/>
	<stop  offset="0.62" style="stop-color:#D2D3D3"/>
	<stop  offset="0.82" style="stop-color:#B0AEAC"/>
	<stop  offset="0.88" style="stop-color:#A6A3A0"/>
	<stop  offset="1" style="stop-color:#D2D3D4"/>
	<stop  offset="1" style="stop-color:#A8AAAD"/>
</linearGradient>
<path style="fill:url(#SVGID_00000064338846875904726530000003367426161147873175_);" d="M43.3,18.3c-3.9-5.2-10.2-6.7-16.2-8.5
	C19.8,7.5,12.6,4.9,5.5,1.8C4.7,1.4,3.6,1.6,3.1,2.5C2.6,3.2,2.9,4.5,3.7,4.9c6.8,2.9,13.7,5.6,20.8,7.8c5.3,1.7,12.2,2.7,15.8,7.4
	c0.6,0.8,1.5,1.2,2.5,0.6C43.5,20.3,43.9,19,43.3,18.3L43.3,18.3z"/>
<linearGradient id="SVGID_00000159441166721726408040000013517956706634104473_" gradientUnits="userSpaceOnUse" x1="57.1042" y1="78.6433" x2="75.423" y2="78.6433" gradientTransform="matrix(6.123234e-17 -1 -1 -6.123234e-17 98.6531 97.0987)">
	<stop  offset="0" style="stop-color:#E5E2DF"/>
	<stop  offset="0" style="stop-color:#D8D4D0"/>
	<stop  offset="0" style="stop-color:#CCC7C2"/>
	<stop  offset="7.000000e-02" style="stop-color:#BDB8B4"/>
	<stop  offset="0.15" style="stop-color:#A6A3A0"/>
	<stop  offset="0.52" style="stop-color:#E0E1E2"/>
	<stop  offset="0.62" style="stop-color:#D2D3D3"/>
	<stop  offset="0.82" style="stop-color:#B0AEAC"/>
	<stop  offset="0.88" style="stop-color:#A6A3A0"/>
	<stop  offset="1" style="stop-color:#D2D3D4"/>
	<stop  offset="1" style="stop-color:#A8AAAD"/>
</linearGradient>
<path style="fill:url(#SVGID_00000159441166721726408040000013517956706634104473_);" d="M16.7,22.8c3.4,4.8,4.3,11,2.4,16.6
	c-0.7,2.2,2.7,3.1,3.5,1c2.2-6.4,1.1-13.8-2.8-19.4c-0.6-0.8-1.6-1.2-2.5-0.6C16.5,20.8,16.1,22,16.7,22.8L16.7,22.8L16.7,22.8z"/>
<linearGradient id="SVGID_00000054254224667850399060000010095011657400361114_" gradientUnits="userSpaceOnUse" x1="56.3314" y1="86.0643" x2="93.8849" y2="86.0643" gradientTransform="matrix(6.123234e-17 -1 -1 -6.123234e-17 98.6531 97.0987)">
	<stop  offset="0" style="stop-color:#E5E2DF"/>
	<stop  offset="0" style="stop-color:#D8D4D0"/>
	<stop  offset="0" style="stop-color:#CCC7C2"/>
	<stop  offset="7.000000e-02" style="stop-color:#BDB8B4"/>
	<stop  offset="0.15" style="stop-color:#A6A3A0"/>
	<stop  offset="0.52" style="stop-color:#E0E1E2"/>
	<stop  offset="0.62" style="stop-color:#D2D3D3"/>
	<stop  offset="0.82" style="stop-color:#B0AEAC"/>
	<stop  offset="0.88" style="stop-color:#A6A3A0"/>
	<stop  offset="1" style="stop-color:#D2D3D4"/>
	<stop  offset="1" style="stop-color:#A8AAAD"/>
</linearGradient>
<path style="fill:url(#SVGID_00000054254224667850399060000010095011657400361114_);" d="M21.4,38.9c-4.7-3.5-5.8-10.5-7.4-15.7
	c-2.2-7.1-4.8-14-7.8-20.7C5.8,1.6,4.5,1.4,3.7,1.8c-0.9,0.5-1,1.6-0.6,2.5c3.1,7.1,5.7,14.3,8,21.6c1.8,5.9,3.3,12.2,8.5,16.1
	c0.8,0.6,2,0.1,2.5-0.6C22.6,40.5,22.2,39.5,21.4,38.9L21.4,38.9L21.4,38.9z"/>
</svg>
